<svg width="12" height="12" viewBox="0 0 12 12" fill="none" xmlns="http://www.w3.org/2000/svg">
<path d="M4.85459 12C4.67681 12 4.53792 11.925 4.43792 11.775C4.33792 11.625 4.28792 11.4556 4.28792 11.2667V3.33333H0.95459C0.95459 2.41111 1.27959 1.625 1.92959 0.975C2.57959 0.325 3.3657 0 4.28792 0H8.28792V2.36667L10.6213 0H11.6213V5.73333H10.6213L8.28792 3.36667V11.2667C8.28792 11.4667 8.2157 11.6389 8.07126 11.7833C7.92681 11.9278 7.75459 12 7.55459 12H4.85459ZM5.28792 11H7.28792V7.05H5.28792V11ZM5.28792 6.05H7.28792V1H4.28792C3.85459 1 3.43792 1.12222 3.03792 1.36667C2.63792 1.61111 2.35459 1.93333 2.18792 2.33333H5.28792V6.05Z" fill="#666363"/>
</svg>
