<svg width="15" height="14" viewBox="0 0 15 14" fill="none" xmlns="http://www.w3.org/2000/svg">
<path d="M5.21989 8.71658H11.7366L9.61989 5.86659L7.90322 8.11658L6.76989 6.66658L5.21989 8.71658ZM3.80322 11.6666C3.53656 11.6666 3.30322 11.5666 3.10322 11.3666C2.90322 11.1666 2.80322 10.9333 2.80322 10.6666V1.33325C2.80322 1.06659 2.90322 0.833252 3.10322 0.633252C3.30322 0.433252 3.53656 0.333252 3.80322 0.333252H13.1366C13.4032 0.333252 13.6366 0.433252 13.8366 0.633252C14.0366 0.833252 14.1366 1.06659 14.1366 1.33325V10.6666C14.1366 10.9333 14.0366 11.1666 13.8366 11.3666C13.6366 11.5666 13.4032 11.6666 13.1366 11.6666H3.80322ZM3.80322 10.6666H13.1366V1.33325H3.80322V10.6666ZM1.80322 13.6666C1.53656 13.6666 1.30322 13.5666 1.10322 13.3666C0.903223 13.1666 0.803223 12.9333 0.803223 12.6666V2.33325H1.80322V12.6666H12.1366V13.6666H1.80322ZM3.80322 1.33325V10.6666V1.33325Z" fill="#666363"/>
</svg>
