<svg width="12" height="12" viewBox="0 0 12 12" fill="none" xmlns="http://www.w3.org/2000/svg">
<path d="M6.10604 5.9834C5.3727 5.9834 4.77271 5.75006 4.30604 5.2834C3.83937 4.81673 3.60604 4.21673 3.60604 3.4834C3.60604 2.75007 3.83937 2.15007 4.30604 1.6834C4.77271 1.21673 5.3727 0.983398 6.10604 0.983398C6.83937 0.983398 7.43937 1.21673 7.90604 1.6834C8.3727 2.15007 8.60604 2.75007 8.60604 3.4834C8.60604 4.21673 8.3727 4.81673 7.90604 5.2834C7.43937 5.75006 6.83937 5.9834 6.10604 5.9834ZM0.772705 11.3334V9.76673C0.772705 9.34451 0.878261 8.9834 1.08937 8.6834C1.30048 8.3834 1.5727 8.15562 1.90604 8.00006C2.65048 7.66673 3.36437 7.41673 4.04771 7.25006C4.73104 7.0834 5.41715 7.00006 6.10604 7.00006C6.79493 7.00006 7.47826 7.08618 8.15604 7.2584C8.83382 7.43062 9.54493 7.67784 10.2894 8.00006C10.6338 8.15562 10.9116 8.3834 11.1227 8.6834C11.3338 8.9834 11.4394 9.34451 11.4394 9.76673V11.3334H0.772705ZM1.77271 10.3334H10.4394V9.76673C10.4394 9.58895 10.3866 9.41951 10.281 9.2584C10.1755 9.09729 10.0449 8.97784 9.88937 8.90006C9.17826 8.55562 8.52826 8.31951 7.93937 8.19173C7.35048 8.06395 6.73937 8.00006 6.10604 8.00006C5.47271 8.00006 4.85604 8.06395 4.25604 8.19173C3.65604 8.31951 3.00604 8.55562 2.30604 8.90006C2.15048 8.97784 2.02271 9.09729 1.92271 9.2584C1.82271 9.41951 1.77271 9.58895 1.77271 9.76673V10.3334ZM6.10604 4.9834C6.53937 4.9834 6.89771 4.84173 7.18104 4.5584C7.46437 4.27506 7.60604 3.91673 7.60604 3.4834C7.60604 3.05007 7.46437 2.69173 7.18104 2.4084C6.89771 2.12507 6.53937 1.9834 6.10604 1.9834C5.67271 1.9834 5.31437 2.12507 5.03104 2.4084C4.7477 2.69173 4.60604 3.05007 4.60604 3.4834C4.60604 3.91673 4.7477 4.27506 5.03104 4.5584C5.31437 4.84173 5.67271 4.9834 6.10604 4.9834Z" fill="#666363"/>
</svg>
