<svg width="24" height="24" viewBox="0 0 24 24" fill="none" xmlns="http://www.w3.org/2000/svg">
<path d="M1.15117 24L10.2209 14.952C10.9186 15.5575 11.7267 16.0291 12.6453 16.3668C13.564 16.7045 14.5233 16.8734 15.5233 16.8734C17.8953 16.8734 19.9012 16.0524 21.5407 14.4105C23.1802 12.7686 24 10.7715 24 8.41921C24 6.09025 23.1802 4.1048 21.5407 2.46288C19.9012 0.820961 17.907 0 15.5581 0C13.2093 0 11.2151 0.820961 9.57558 2.46288C7.93605 4.1048 7.11628 6.09025 7.11628 8.41921C7.11628 9.39738 7.28489 10.3523 7.6221 11.2838C7.9593 12.2154 8.44186 13.0539 9.06977 13.7991L0 22.8472L1.15117 24ZM15.5233 15.3013C13.6395 15.3013 12.0349 14.6317 10.7093 13.2926C9.38372 11.9534 8.72093 10.329 8.72093 8.41921C8.72093 6.50946 9.38372 4.89083 10.7093 3.56332C12.0349 2.23581 13.6395 1.57205 15.5233 1.57205C17.4535 1.57205 19.0814 2.23581 20.407 3.56332C21.7326 4.89083 22.3953 6.50946 22.3953 8.41921C22.3953 10.329 21.7326 11.9534 20.407 13.2926C19.0814 14.6317 17.4535 15.3013 15.5233 15.3013Z" fill="#848080"/>
</svg>
