<svg width="13" height="12" viewBox="0 0 13 12" fill="none" xmlns="http://www.w3.org/2000/svg">
<path d="M8.86667 7.06667C9.14444 7.06667 9.39167 6.95833 9.60833 6.74167C9.825 6.525 9.93333 6.27222 9.93333 5.98333C9.93333 5.70556 9.825 5.46111 9.60833 5.25C9.39167 5.03889 9.14444 4.93333 8.86667 4.93333C8.58889 4.93333 8.34167 5.03889 8.125 5.25C7.90833 5.46111 7.8 5.70556 7.8 5.98333C7.8 6.27222 7.90833 6.525 8.125 6.74167C8.34167 6.95833 8.58889 7.06667 8.86667 7.06667ZM1 10.1167V11V1V10.1167ZM1 12C0.744444 12 0.513889 11.9 0.308333 11.7C0.102778 11.5 0 11.2667 0 11V1C0 0.744444 0.102778 0.513889 0.308333 0.308333C0.513889 0.102778 0.744444 0 1 0H11C11.2667 0 11.5 0.102778 11.7 0.308333C11.9 0.513889 12 0.744444 12 1V3.23333H11V1H1V11H11V8.78333H12V11C12 11.2667 11.9 11.5 11.7 11.7C11.5 11.9 11.2667 12 11 12H1ZM6.96667 9.11667C6.58889 9.11667 6.28889 9.00556 6.06667 8.78333C5.84444 8.56111 5.73333 8.26667 5.73333 7.9V4.11667C5.73333 3.73889 5.84444 3.44167 6.06667 3.225C6.28889 3.00833 6.58889 2.9 6.96667 2.9H11.4667C11.8444 2.9 12.1444 3.00833 12.3667 3.225C12.5889 3.44167 12.7 3.73889 12.7 4.11667V7.9C12.7 8.26667 12.5889 8.56111 12.3667 8.78333C12.1444 9.00556 11.8444 9.11667 11.4667 9.11667H6.96667ZM11.7 8.11667V3.9H6.73333V8.11667H11.7Z" fill="white"/>
</svg>
