<svg width="11" height="10" viewBox="0 0 11 10" fill="none" xmlns="http://www.w3.org/2000/svg">
<path fill-rule="evenodd" clip-rule="evenodd" d="M5.76697 1.12304C5.97626 0.91374 6.3156 0.91374 6.5249 1.12304L10.0978 4.69595C10.1983 4.79646 10.2548 4.93278 10.2548 5.07492C10.2548 5.21706 10.1983 5.35338 10.0978 5.45388L6.5249 9.0268C6.3156 9.2361 5.97626 9.2361 5.76697 9.0268C5.55767 8.8175 5.55767 8.47817 5.76697 8.26887L8.42498 5.61086L1.14385 5.61086C0.847858 5.61086 0.60791 5.37091 0.60791 5.07492C0.60791 4.77893 0.847858 4.53898 1.14385 4.53898L8.42498 4.53898L5.76697 1.88097C5.55767 1.67167 5.55767 1.33233 5.76697 1.12304Z" fill="#DE4343" stroke="#DE4343" stroke-width="1.07188" stroke-linecap="round" stroke-linejoin="round"/>
</svg>
