<svg width="11" height="10" viewBox="0 0 11 10" fill="none" xmlns="http://www.w3.org/2000/svg">
<path fill-rule="evenodd" clip-rule="evenodd" d="M5.81311 1.31319C6.00838 1.11793 6.32496 1.11793 6.52022 1.31319L9.85355 4.64653C9.94732 4.7403 10 4.86747 10 5.00008C10 5.13269 9.94732 5.25987 9.85355 5.35363L6.52022 8.68697C6.32496 8.88223 6.00838 8.88223 5.81311 8.68697C5.61785 8.49171 5.61785 8.17512 5.81311 7.97986L8.29289 5.50008L1.5 5.50008C1.22386 5.50008 1 5.27622 1 5.00008C1 4.72394 1.22386 4.50008 1.5 4.50008L8.29289 4.50008L5.81311 2.0203C5.61785 1.82504 5.61785 1.50846 5.81311 1.31319Z" fill="white" stroke="white" stroke-linecap="round" stroke-linejoin="round"/>
</svg>


